ISO-10303-21;
HEADER;
FILE_DESCRIPTION(('ViewDefinition [CoordinationView]'),'2;1');
FILE_NAME('','2026-05-06T12:35:19',(''),(''),'IfcOpenShell 0.8.5-1c5b825','IfcOpenShell 0.8.5-1c5b825','');
FILE_SCHEMA(('IFC4X3_ADD2'));
ENDSEC;
DATA;
#1=IFCPROJECT('3uKlg1fTr4JwLJr1kIPuPe',$,'Tier 1 Grading Demo','Headless IFC grading demo \X2\2014\X0\ Saikei Civil Phase 7a',$,$,$,(#17,#56),#5);
#2=IFCSIUNIT(*,.LENGTHUNIT.,$,.METRE.);
#3=IFCSIUNIT(*,.AREAUNIT.,$,.SQUARE_METRE.);
#4=IFCSIUNIT(*,.VOLUMEUNIT.,$,.CUBIC_METRE.);
#5=IFCUNITASSIGNMENT((#3,#4,#2));
#6=IFCSITE('1VMAJSUL5E5e9bo6xxe6zD',$,'Demo Site',$,$,$,$,$,.ELEMENT.,$,$,$,$,$);
#7=IFCRELAGGREGATES('0YV9B8xdzCJxRMIejfQNKY',$,$,$,#1,(#6));
#8=IFCGEOGRAPHICELEMENT('2c57cip_zEmRUZAVlL$fmJ',$,'Existing Ground',$,$,$,#10,$,.TERRAIN.);
#9=IFCRELCONTAINEDINSPATIALSTRUCTURE('0WRo6SxF14KQSAsOBJTWuZ',$,$,$,(#82,#142,#46,#35,#8,#301),#6);
#10=IFCPRODUCTDEFINITIONSHAPE($,$,(#19,#23));
#11=IFCCARTESIANPOINTLIST3D(((0.,0.,98.5),(5.,0.,99.),(10.,0.,99.799999999999997),(15.,0.,100.3),(20.,0.,101.09999999999999),(25.,0.,101.59999999999999),(30.,0.,102.40000000000001),(0.,5.,98.700000000000003),(5.,5.,99.200000000000003),(10.,5.,100.),(15.,5.,100.5),(20.,5.,101.3),(25.,5.,101.90000000000001),(30.,5.,102.7),(0.,10.,99.099999999999994),(5.,10.,99.5),(10.,10.,100.2),(15.,10.,100.8),(20.,10.,101.5),(25.,10.,102.09999999999999),(30.,10.,102.90000000000001),(0.,15.,99.299999999999997),(5.,15.,99.700000000000003),(10.,15.,100.40000000000001),(15.,15.,101.),(20.,15.,101.7),(25.,15.,102.3),(30.,15.,103.09999999999999),(0.,20.,99.599999999999994),(5.,20.,100.),(10.,20.,100.59999999999999),(15.,20.,101.2),(20.,20.,101.90000000000001),(25.,20.,102.59999999999999),(30.,20.,103.40000000000001)),$);
#12=IFCTRIANGULATEDIRREGULARNETWORK(#11,$,.F.,((34,28,35),(28,34,27),(21,28,20),(28,27,20),(11,5,12),(5,11,4),(11,19,18),(19,11,12),(11,3,4),(3,11,10),(2,9,1),(9,8,1),(8,9,15),(15,9,16),(9,3,10),(3,9,2),(17,9,10),(9,17,16),(11,17,10),(17,11,18),(17,23,16),(23,17,24),(23,22,15),(23,15,16),(23,30,29),(22,23,29),(23,31,30),(31,23,24),(13,19,12),(19,13,20),(13,14,21),(13,21,20),(27,26,20),(26,19,20),(14,6,7),(13,6,14),(5,6,12),(6,13,12),(34,33,27),(33,26,27),(31,25,32),(25,31,24),(25,17,18),(17,25,24),(33,25,26),(25,33,32),(19,25,18),(26,25,19)),$,(0,0,0,0,0,0,0,0,0,0,0,0,0,0,0,0,0,0,0,0,0,0,0,0,0,0,0,0,0,0,0,0,0,0,0,0,0,0,0,0,0,0,0,0,0,0,0,0));
#13=IFCCARTESIANPOINT((0.,0.,0.));
#14=IFCDIRECTION((0.,0.,1.));
#15=IFCDIRECTION((1.,0.,0.));
#16=IFCAXIS2PLACEMENT3D(#13,#14,#15);
#17=IFCGEOMETRICREPRESENTATIONCONTEXT($,'Model',3,1.0000000000000001E-05,#16,$);
#18=IFCGEOMETRICREPRESENTATIONSUBCONTEXT('Body','Model',*,*,*,*,#17,$,.MODEL_VIEW.,$);
#19=IFCSHAPEREPRESENTATION(#18,'Body','Tessellation',(#12));
#20=IFCCARTESIANPOINT((0.,0.,98.5));
#21=IFCBOUNDINGBOX(#20,30.,20.,4.9000000000000057);
#22=IFCGEOMETRICREPRESENTATIONSUBCONTEXT('Box','Model',*,*,*,*,#17,$,.MODEL_VIEW.,$);
#23=IFCSHAPEREPRESENTATION(#22,'Box','BoundingBox',(#21));
#24=IFCPROPERTYSET('31fyue74fA693iryIkTNKb',$,'Pset_GeographicElementCommon',$,(#26));
#25=IFCRELDEFINESBYPROPERTIES('3L_kKnaUXBshE1v9EexC0w',$,$,$,(#8),#24);
#26=IFCPROPERTYSINGLEVALUE('Status',$,IFCLABEL('NEW'),$);
#27=IFCPROPERTYSET('36Qk_SYJT2qhFQice4YosL',$,'Pset_SaikeiGradingSurface',$,(#29,#30,#31));
#28=IFCRELDEFINESBYPROPERTIES('0bsJzrJmn5GedVxSH9VVC0',$,$,$,(#8),#27);
#29=IFCPROPERTYSINGLEVALUE('TriangulationTolerance',$,IFCREAL(0.),$);
#30=IFCPROPERTYSINGLEVALUE('BreaklineCount',$,IFCINTEGER(0),$);
#31=IFCPROPERTYSINGLEVALUE('VertexCount',$,IFCINTEGER(35),$);
#32=IFCCLASSIFICATION('Construction Specifications Institute',$,$,'OmniClass Table 22','OmniClass Construction Classification System \X2\2014\X0\ Table 22 (Work Results)',$,$);
#33=IFCCLASSIFICATIONREFERENCE($,'22-07 31 13','Site Preparation',#32,$,$);
#34=IFCRELASSOCIATESCLASSIFICATION('3vvNbSaRvE2RLWW3eeIGJp',$,$,$,(#8),#33);
#35=IFCANNOTATION('3ljkWiBFT3PhB293TQFYN6',$,'Centerline',$,'BREAKLINE',$,#41,.USERDEFINED.);
#36=IFCCARTESIANPOINT((0.,10.,99.099999999999994));
#37=IFCCARTESIANPOINT((30.,10.,102.90000000000001));
#38=IFCPOLYLINE((#36,#37));
#39=IFCGEOMETRICREPRESENTATIONSUBCONTEXT('Annotation','Model',*,*,*,*,#17,$,.MODEL_VIEW.,$);
#40=IFCSHAPEREPRESENTATION(#39,'Annotation','Curve3D',(#38));
#41=IFCPRODUCTDEFINITIONSHAPE($,$,(#40));
#42=IFCPROPERTYSET('2aUrk5DcP9KvfuCKlxt6o2',$,'Pset_SaikeiBreaklineCommon',$,(#44,#45));
#43=IFCRELDEFINESBYPROPERTIES('1kp9ATp3v5nv$$_qhPt_$G',$,$,$,(#35),#42);
#44=IFCPROPERTYSINGLEVALUE('Kind',$,IFCLABEL('standard'),$);
#45=IFCPROPERTYSINGLEVALUE('Source',$,IFCLABEL('manual'),$);
#46=IFCALIGNMENT('2ciWMKCN173O4jWzrunVeH',$,'Pad perimeter',$,$,#64,#59,$);
#50=IFCCARTESIANPOINTLIST3D(((10.,5.,101.),(20.,5.,101.),(20.,15.,101.),(10.,15.,101.),(10.,5.,101.)),$);
#51=IFCINDEXEDPOLYCURVE(#50,$,.F.);
#52=IFCCARTESIANPOINT((0.,0.,0.));
#53=IFCDIRECTION((0.,0.,1.));
#54=IFCDIRECTION((1.,0.,0.));
#55=IFCAXIS2PLACEMENT3D(#52,#53,#54);
#56=IFCGEOMETRICREPRESENTATIONCONTEXT($,'Model',3,1.0000000000000001E-05,#55,$);
#57=IFCGEOMETRICREPRESENTATIONSUBCONTEXT('Axis','Model',*,*,*,*,#56,$,.MODEL_VIEW.,$);
#58=IFCSHAPEREPRESENTATION(#57,'Axis','Curve3D',(#51));
#59=IFCPRODUCTDEFINITIONSHAPE($,$,(#58));
#60=IFCCARTESIANPOINT((0.,0.,0.));
#61=IFCDIRECTION((0.,0.,1.));
#62=IFCDIRECTION((1.,0.,0.));
#63=IFCAXIS2PLACEMENT3D(#60,#61,#62);
#64=IFCLOCALPLACEMENT($,#63);
#65=IFCPROPERTYSET('3hXrTgdjf0pvknE3yYf3wl',$,'Pset_SaikeiFeatureLineCommon',$,(#67,#68,#69));
#66=IFCRELDEFINESBYPROPERTIES('1$_jc0vZLDwRxdNwVYCrwC',$,$,$,(#46),#65);
#67=IFCPROPERTYSINGLEVALUE('IsClosed',$,IFCBOOLEAN(.T.),$);
#68=IFCPROPERTYSINGLEVALUE('Source',$,IFCLABEL('manual'),$);
#69=IFCPROPERTYSINGLEVALUE('ElevationSource',$,IFCLABEL('manual'),$);
#70=IFCPROPERTYENUMERATION('SaikeiGradingTargetKind',(IFCLABEL('surface'),IFCLABEL('elevation'),IFCLABEL('relative_elevation'),IFCLABEL('distance')),$);
#71=IFCSIMPLEPROPERTYTEMPLATE('0CDt_xgc17WB3WANdQPwJY',$,'TargetKind','Kind of grading target: surface, elevation, relative_elevation, or distance.',.P_ENUMERATEDVALUE.,$,$,#70,$,$,$,.READWRITE.);
#72=IFCSIMPLEPROPERTYTEMPLATE('0gEY3lKIf65QVSAS3_83cE',$,'TargetReference','Reference value paired with TargetKind: GUID of the target IfcGeographicElement for kind=surface; numeric (stringified) for the elevation / distance variants.',.P_SINGLEVALUE.,'IfcLabel',$,$,$,$,$,.READWRITE.);
#73=IFCSIMPLEPROPERTYTEMPLATE('01hR7EbwH9fOARQIS7S_K$',$,'CutSlope','Cut slope ratio (H:V); typical values 1.5\X2\2013\X0\3.0.',.P_SINGLEVALUE.,'IfcPositiveRatioMeasure',$,$,$,$,$,.READWRITE.);
#74=IFCSIMPLEPROPERTYTEMPLATE('3xm56$LRbAJQE8AK44Ev9W',$,'FillSlope','Fill slope ratio (H:V); typical values 2.0\X2\2013\X0\4.0.',.P_SINGLEVALUE.,'IfcPositiveRatioMeasure',$,$,$,$,$,.READWRITE.);
#75=IFCSIMPLEPROPERTYTEMPLATE('2Z5bFf4Er4DuxjfS0vMvB5',$,'MaxDistance','Daylight cap \X2\2014\X0\ maximum horizontal projection distance before the slope is terminated (or a retaining wall inserted if RetainingWallAtLimit is true). Omit the property entirely for unlimited.',.P_SINGLEVALUE.,'IfcPositiveLengthMeasure',$,$,$,$,$,.READWRITE.);
#76=IFCSIMPLEPROPERTYTEMPLATE('3jjeB2HVz8wQ6O5ddFYQ78',$,'RetainingWallAtLimit','Whether to insert a retaining wall when MaxDistance is reached before daylighting.',.P_SINGLEVALUE.,'IfcBoolean',$,$,$,$,$,.READWRITE.);
#77=IFCPROPERTYSETTEMPLATE('1HmonxPIr3PxXbALxz61rK',$,'Pset_SaikeiGradingCriteria','Saikei grading criteria \X2\2014\X0\ slope projection rules. Instances attach to IfcGroup ObjectType=''GradingGroup'' via IfcRelDefinesByProperties + IfcRelDefinesByTemplate.',.PSET_OCCURRENCEDRIVEN.,'IfcGroup',(#71,#72,#73,#74,#75,#76));
#78=IFCGROUP('0th5GTHDrDJx7eIH99i4pJ',$,'Pad Grading',$,'GradingGroup');
#82=IFCEARTHWORKSFILL('22SLYhCsT9j9sKcaQXHb7Z',$,'Pad Grading',$,$,#87,$,$,.SUBGRADE.);
#83=IFCCARTESIANPOINT((0.,0.,0.));
#84=IFCDIRECTION((0.,0.,1.));
#85=IFCDIRECTION((1.,0.,0.));
#86=IFCAXIS2PLACEMENT3D(#83,#84,#85);
#87=IFCLOCALPLACEMENT($,#86);
#88=IFCPROPERTYSET('1xVcZi5yL9fevdnnn28PGF',$,'Pset_EarthworksFillCommon',$,(#90));
#89=IFCRELDEFINESBYPROPERTIES('0wTXeze7D0Gv8Bso34aPEL',$,$,$,(#82),#88);
#90=IFCPROPERTYSINGLEVALUE('Status',$,IFCLABEL('NEW'),$);
#91=IFCCLASSIFICATIONREFERENCE($,'22-07 31 23','Fill',#32,$,$);
#92=IFCRELASSOCIATESCLASSIFICATION('1VTdkjPdr4ph5gVs00sl$r',$,$,$,(#82,#111,#301),#91);
#93=IFCPROPERTYSET('1yZ7cEKwr6JOMXH5Og6Z1I',$,'Pset_SaikeiGradingSource',$,(#95,#96,#97,#98));
#94=IFCRELDEFINESBYPROPERTIES('0EEXvDaen55hTKXnaC878t',$,$,$,(#78),#93);
#95=IFCPROPERTYSINGLEVALUE('InteriorFillStrategy',$,IFCLABEL('flat'),$);
#96=IFCPROPERTYSINGLEVALUE('Timestamp',$,IFCINTEGER(1778092519),$);
#97=IFCPROPERTYSINGLEVALUE('Version',$,IFCINTEGER(1),$);
#98=IFCPROPERTYSINGLEVALUE('TargetSurfaceGuid',$,IFCLABEL('2c57cip_zEmRUZAVlL$fmJ'),$);
#99=IFCRELASSIGNSTOGROUP('2KbS4KHOLFAgamvRpwp5rF',$,$,$,(#82,#111,#46,#126),$,#78);
#100=IFCPROPERTYENUMERATEDVALUE('TargetKind',$,(IFCLABEL('surface')),#70);
#101=IFCPROPERTYSINGLEVALUE('TargetReference',$,IFCLABEL('2c57cip_zEmRUZAVlL$fmJ'),$);
#102=IFCPROPERTYSINGLEVALUE('CutSlope',$,IFCPOSITIVERATIOMEASURE(2.),$);
#103=IFCPROPERTYSINGLEVALUE('FillSlope',$,IFCPOSITIVERATIOMEASURE(3.),$);
#104=IFCPROPERTYSINGLEVALUE('RetainingWallAtLimit',$,IFCBOOLEAN(.F.),$);
#105=IFCPROPERTYSET('0yyYTBE9H1Q97UYhPKkY_1',$,'Pset_SaikeiGradingCriteria',$,(#100,#101,#102,#103,#104));
#106=IFCRELDEFINESBYPROPERTIES('2gZ4FBFEj8cAOB24NPZCOR',$,$,$,(#78),#105);
#107=IFCRELDEFINESBYTEMPLATE('1dcFAJb$16FANS1hvwiuJg',$,$,$,(#105),#77);
#108=IFCCARTESIANPOINT((0.,0.,0.));
#109=IFCAXIS2PLACEMENT3D(#108,$,$);
#110=IFCLOCALPLACEMENT($,#109);
#111=IFCEARTHWORKSFILL('0ASgUIBp9Ao8ajIkhHPab_',$,'Pad slope',$,$,#110,#112,$,.SLOPEFILL.);
#112=IFCPRODUCTDEFINITIONSHAPE($,$,(#115,#118));
#113=IFCCARTESIANPOINTLIST3D(((10.,5.,101.),(20.,5.,101.),(20.,15.,101.),(10.,15.,101.),(10.,3.,99.920000000000002),(20.,3.,101.22),(22.,5.,101.53999999999999),(22.,15.,101.94),(20.,15.5,101.72),(10.,15.5,100.42000000000002),(7.1000000000000085,15.,99.994),(7.1000000000000085,5.,99.536000000000001)),$);
#114=IFCTRIANGULATEDIRREGULARNETWORK(#113,$,.F.,((1,2,6),(1,6,5),(2,3,8),(2,8,7),(3,4,10),(3,10,9),(4,1,12),(4,12,11)),$,(0,0,0,0,0,0,0,0));
#115=IFCSHAPEREPRESENTATION(#18,'Body','Tessellation',(#114));
#116=IFCCARTESIANPOINT((7.1000000000000085,3.,99.536000000000001));
#117=IFCBOUNDINGBOX(#116,14.899999999999991,12.5,2.4039999999999964);
#118=IFCSHAPEREPRESENTATION(#22,'Box','BoundingBox',(#117));
#119=IFCPROPERTYSET('2$GS0MWw14IhgUvW3MP2KR',$,'Pset_EarthworksFillCommon',$,(#121));
#120=IFCRELDEFINESBYPROPERTIES('1FI1xFJWjDKQ$EfELD0gIj',$,$,$,(#111),#119);
#121=IFCPROPERTYSINGLEVALUE('Status',$,IFCLABEL('NEW'),$);
#122=IFCRELAGGREGATES('18MRg0dPj3Sg3u$iAq2wcg',$,$,$,#82,(#111,#126));
#123=IFCCARTESIANPOINT((0.,0.,0.));
#124=IFCAXIS2PLACEMENT3D(#123,$,$);
#125=IFCLOCALPLACEMENT($,#124);
#126=IFCEARTHWORKSFILL('37lba$UlbCTuKIdLK3pUZu',$,'Pad interior',$,$,#125,#127,$,.SUBGRADE.);
#127=IFCPRODUCTDEFINITIONSHAPE($,$,(#130,#133));
#128=IFCCARTESIANPOINTLIST3D(((10.,5.,101.),(20.,5.,101.),(20.,15.,101.),(10.,15.,101.)),$);
#129=IFCTRIANGULATEDIRREGULARNETWORK(#128,$,.F.,((1,2,3),(1,3,4)),$,(0,0));
#130=IFCSHAPEREPRESENTATION(#18,'Body','Tessellation',(#129));
#131=IFCCARTESIANPOINT((10.,5.,101.));
#132=IFCBOUNDINGBOX(#131,10.,10.,9.9999999747524271E-07);
#133=IFCSHAPEREPRESENTATION(#22,'Box','BoundingBox',(#132));
#134=IFCPROPERTYSET('1I0ZnY7Of4U9r0GoIc_8w7',$,'Pset_EarthworksFillCommon',$,(#136));
#135=IFCRELDEFINESBYPROPERTIES('3mrczNjhb66QOXw8daalkY',$,$,$,(#126),#134);
#136=IFCPROPERTYSINGLEVALUE('Status',$,IFCLABEL('NEW'),$);
#137=IFCCLASSIFICATIONREFERENCE($,'22-07 31 16','Excavation and Fill',#32,$,$);
#138=IFCRELASSOCIATESCLASSIFICATION('2T0zmN_K5FnO1lCEb299or',$,$,$,(#126,#142),#137);
#142=IFCEARTHWORKSCUT('2qBqIove52BOcZg_pIMx0j',$,'Pad excavation',$,$,#147,#148,$,.EXCAVATION.);
#143=IFCCARTESIANPOINT((0.,0.,0.));
#144=IFCDIRECTION((0.,0.,1.));
#145=IFCDIRECTION((1.,0.,0.));
#146=IFCAXIS2PLACEMENT3D(#143,#144,#145);
#147=IFCLOCALPLACEMENT($,#146);
#148=IFCPRODUCTDEFINITIONSHAPE($,$,(#286));
#149=IFCCARTESIANPOINTLIST3D(((20.833333333333332,9.1666666666666661,101.13055555555555),(20.,5.,101.13055555555555),(20.,10.,101.13055555555555),(20.833333333333332,9.1666666666666661,101.45555555555556),(20.,5.,101.45555555555556),(20.,10.,101.45555555555556),(20.,10.,101.28722222222223),(21.,10.,101.28722222222223),(20.833333333333332,9.1666666666666661,101.28722222222223),(20.,10.,101.56222222222222),(21.,10.,101.56222222222222),(20.833333333333332,9.1666666666666661,101.56222222222222),(21.666666666666668,13.333333333333334,101.57444444444445),(20.,15.,101.57444444444445),(22.,15.,101.57444444444445),(21.666666666666668,13.333333333333334,101.82444444444444),(20.,15.,101.82444444444444),(22.,15.,101.82444444444444),(21.666666666666668,13.333333333333334,101.41777777777777),(21.,10.,101.41777777777777),(20.,10.,101.41777777777777),(21.666666666666668,13.333333333333334,101.65111111111111),(21.,10.,101.65111111111111),(20.,10.,101.65111111111111),(20.,10.,101.26111111111111),(20.,15.,101.26111111111111),(21.666666666666668,13.333333333333334,101.26111111111111),(20.,10.,101.67777777777776),(20.,15.,101.67777777777776),(21.666666666666668,13.333333333333334,101.67777777777776),(22.,8.,101.39999999999999),(22.,5.,101.39999999999999),(20.,5.,101.39999999999999),(22.,8.,101.5),(22.,5.,101.5),(20.,5.,101.5),(20.,5.,101.35055555555554),(20.833333333333332,9.1666666666666661,101.35055555555554),(22.,8.,101.35055555555554),(20.,5.,101.50888888888888),(20.833333333333332,9.1666666666666661,101.50888888888888),(22.,8.,101.50888888888888),(22.,10.,101.59722222222221),(22.,8.,101.59722222222221),(20.833333333333332,9.1666666666666661,101.59722222222221),(22.,10.,101.65555555555557),(22.,8.,101.65555555555557),(20.833333333333332,9.1666666666666661,101.65555555555557),(20.833333333333332,9.1666666666666661,101.5338888888889),(21.,10.,101.5338888888889),(22.,10.,101.5338888888889),(20.833333333333332,9.1666666666666661,101.64222222222223),(21.,10.,101.64222222222223),(22.,10.,101.64222222222223),(22.,13.,101.8611111111111),(21.666666666666668,13.333333333333334,101.8611111111111),(22.,15.,101.8611111111111),(22.,13.,101.87777777777778),(21.666666666666668,13.333333333333334,101.87777777777778),(22.,15.,101.87777777777778),(22.,13.,101.69),(22.,10.,101.69),(21.,10.,101.69),(22.,13.,101.74000000000001),(22.,10.,101.74000000000001),(21.,10.,101.74000000000001),(21.,10.,101.70444444444445),(21.666666666666668,13.333333333333334,101.70444444444445),(22.,13.,101.70444444444445),(21.,10.,101.77111111111111),(21.666666666666668,13.333333333333334,101.77111111111111),(22.,13.,101.77111111111111),(15.,15.,100.80157894736844),(14.736842105263158,15.263157894736842,100.80157894736844),(15.,15.25,100.80157894736844),(15.,15.,100.99631578947367),(14.736842105263158,15.263157894736842,100.99631578947367),(15.,15.25,100.99631578947367),(15.238095238095237,15.238095238095237,100.90793650793653),(20.,15.,100.90793650793653),(15.,15.,100.90793650793653),(15.238095238095237,15.238095238095237,101.24761904761904),(20.,15.,101.24761904761904),(15.,15.,101.24761904761904),(15.,15.,100.81126984126985),(15.,15.25,100.81126984126985),(15.238095238095237,15.238095238095237,100.81126984126985),(15.,15.,101.01761904761905),(15.,15.25,101.01761904761905),(15.238095238095237,15.238095238095237,101.01761904761905),(14.5,15.5,100.70657894736844),(14.736842105263158,15.263157894736842,100.70657894736844),(10.,15.5,100.70657894736844),(14.5,15.5,100.78631578947369),(14.736842105263158,15.263157894736842,100.78631578947369),(10.,15.5,100.78631578947369),(14.736842105263158,15.263157894736842,100.82491228070177),(15.,15.5,100.82491228070177),(15.,15.25,100.82491228070177),(14.736842105263158,15.263157894736842,101.00298245614034),(15.,15.5,101.00298245614034),(15.,15.25,101.00298245614034),(15.,15.5,100.92324561403511),(14.736842105263158,15.263157894736842,100.92324561403511),(14.5,15.5,100.92324561403511),(15.,15.5,100.98631578947368),(14.736842105263158,15.263157894736842,100.98631578947368),(14.5,15.5,100.98631578947368),(15.5,15.5,101.28500000000001),(20.,15.5,101.28500000000001),(20.,15.,101.28500000000001),(15.5,15.5,101.50333333333333),(20.,15.5,101.50333333333333),(20.,15.,101.50333333333333),(20.,15.,100.95293650793651),(15.238095238095237,15.238095238095237,100.95293650793651),(15.5,15.5,100.95293650793651),(20.,15.,101.27761904761905),(15.238095238095237,15.238095238095237,101.27761904761905),(15.5,15.5,101.27761904761905),(15.,15.5,100.97626984126987),(15.5,15.5,100.97626984126987),(15.238095238095237,15.238095238095237,100.97626984126987),(15.,15.5,101.05095238095238),(15.5,15.5,101.05095238095238),(15.238095238095237,15.238095238095237,101.05095238095238),(15.238095238095237,15.238095238095237,100.83460317460317),(15.,15.25,100.83460317460317),(15.,15.5,100.83460317460317),(15.238095238095237,15.238095238095237,101.02428571428572),(15.,15.25,101.02428571428572),(15.,15.5,101.02428571428572),(20.,10.,101.),(20.,5.,101.),(15.,5.,101.),(20.,10.,101.10000000000001),(20.,5.,101.10000000000001),(15.,5.,101.10000000000001),(17.5,12.5,101.),(20.,15.,101.),(20.,10.,101.),(17.5,12.5,101.48333333333333),(20.,15.,101.48333333333333),(20.,10.,101.48333333333333),(20.,10.,101.),(15.,10.,101.),(17.5,12.5,101.),(20.,10.,101.18333333333334),(15.,10.,101.18333333333334),(17.5,12.5,101.18333333333334),(15.,15.,101.),(20.,15.,101.),(17.5,12.5,101.),(15.,15.,101.31666666666666),(20.,15.,101.31666666666666),(17.5,12.5,101.31666666666666),(15.,15.,101.),(17.5,12.5,101.),(15.,10.,101.),(15.,15.,101.01666666666667),(17.5,12.5,101.01666666666667),(15.,10.,101.01666666666667)),$);
#150=IFCINDEXEDPOLYGONALFACE((4,5,6));
#151=IFCINDEXEDPOLYGONALFACE((3,2,1));
#152=IFCINDEXEDPOLYGONALFACE((1,2,5,4));
#153=IFCINDEXEDPOLYGONALFACE((2,3,6,5));
#154=IFCINDEXEDPOLYGONALFACE((3,1,4,6));
#155=IFCINDEXEDPOLYGONALFACE((10,11,12));
#156=IFCINDEXEDPOLYGONALFACE((9,8,7));
#157=IFCINDEXEDPOLYGONALFACE((7,8,11,10));
#158=IFCINDEXEDPOLYGONALFACE((8,9,12,11));
#159=IFCINDEXEDPOLYGONALFACE((9,7,10,12));
#160=IFCINDEXEDPOLYGONALFACE((16,17,18));
#161=IFCINDEXEDPOLYGONALFACE((15,14,13));
#162=IFCINDEXEDPOLYGONALFACE((13,14,17,16));
#163=IFCINDEXEDPOLYGONALFACE((14,15,18,17));
#164=IFCINDEXEDPOLYGONALFACE((15,13,16,18));
#165=IFCINDEXEDPOLYGONALFACE((22,23,24));
#166=IFCINDEXEDPOLYGONALFACE((21,20,19));
#167=IFCINDEXEDPOLYGONALFACE((19,20,23,22));
#168=IFCINDEXEDPOLYGONALFACE((20,21,24,23));
#169=IFCINDEXEDPOLYGONALFACE((21,19,22,24));
#170=IFCINDEXEDPOLYGONALFACE((28,29,30));
#171=IFCINDEXEDPOLYGONALFACE((27,26,25));
#172=IFCINDEXEDPOLYGONALFACE((25,26,29,28));
#173=IFCINDEXEDPOLYGONALFACE((26,27,30,29));
#174=IFCINDEXEDPOLYGONALFACE((27,25,28,30));
#175=IFCINDEXEDPOLYGONALFACE((34,35,36));
#176=IFCINDEXEDPOLYGONALFACE((33,32,31));
#177=IFCINDEXEDPOLYGONALFACE((31,32,35,34));
#178=IFCINDEXEDPOLYGONALFACE((32,33,36,35));
#179=IFCINDEXEDPOLYGONALFACE((33,31,34,36));
#180=IFCINDEXEDPOLYGONALFACE((40,41,42));
#181=IFCINDEXEDPOLYGONALFACE((39,38,37));
#182=IFCINDEXEDPOLYGONALFACE((37,38,41,40));
#183=IFCINDEXEDPOLYGONALFACE((38,39,42,41));
#184=IFCINDEXEDPOLYGONALFACE((39,37,40,42));
#185=IFCINDEXEDPOLYGONALFACE((46,47,48));
#186=IFCINDEXEDPOLYGONALFACE((45,44,43));
#187=IFCINDEXEDPOLYGONALFACE((43,44,47,46));
#188=IFCINDEXEDPOLYGONALFACE((44,45,48,47));
#189=IFCINDEXEDPOLYGONALFACE((45,43,46,48));
#190=IFCINDEXEDPOLYGONALFACE((52,53,54));
#191=IFCINDEXEDPOLYGONALFACE((51,50,49));
#192=IFCINDEXEDPOLYGONALFACE((49,50,53,52));
#193=IFCINDEXEDPOLYGONALFACE((50,51,54,53));
#194=IFCINDEXEDPOLYGONALFACE((51,49,52,54));
#195=IFCINDEXEDPOLYGONALFACE((58,59,60));
#196=IFCINDEXEDPOLYGONALFACE((57,56,55));
#197=IFCINDEXEDPOLYGONALFACE((55,56,59,58));
#198=IFCINDEXEDPOLYGONALFACE((56,57,60,59));
#199=IFCINDEXEDPOLYGONALFACE((57,55,58,60));
#200=IFCINDEXEDPOLYGONALFACE((64,65,66));
#201=IFCINDEXEDPOLYGONALFACE((63,62,61));
#202=IFCINDEXEDPOLYGONALFACE((61,62,65,64));
#203=IFCINDEXEDPOLYGONALFACE((62,63,66,65));
#204=IFCINDEXEDPOLYGONALFACE((63,61,64,66));
#205=IFCINDEXEDPOLYGONALFACE((70,71,72));
#206=IFCINDEXEDPOLYGONALFACE((69,68,67));
#207=IFCINDEXEDPOLYGONALFACE((67,68,71,70));
#208=IFCINDEXEDPOLYGONALFACE((68,69,72,71));
#209=IFCINDEXEDPOLYGONALFACE((69,67,70,72));
#210=IFCINDEXEDPOLYGONALFACE((76,77,78));
#211=IFCINDEXEDPOLYGONALFACE((75,74,73));
#212=IFCINDEXEDPOLYGONALFACE((73,74,77,76));
#213=IFCINDEXEDPOLYGONALFACE((74,75,78,77));
#214=IFCINDEXEDPOLYGONALFACE((75,73,76,78));
#215=IFCINDEXEDPOLYGONALFACE((82,83,84));
#216=IFCINDEXEDPOLYGONALFACE((81,80,79));
#217=IFCINDEXEDPOLYGONALFACE((79,80,83,82));
#218=IFCINDEXEDPOLYGONALFACE((80,81,84,83));
#219=IFCINDEXEDPOLYGONALFACE((81,79,82,84));
#220=IFCINDEXEDPOLYGONALFACE((88,89,90));
#221=IFCINDEXEDPOLYGONALFACE((87,86,85));
#222=IFCINDEXEDPOLYGONALFACE((85,86,89,88));
#223=IFCINDEXEDPOLYGONALFACE((86,87,90,89));
#224=IFCINDEXEDPOLYGONALFACE((87,85,88,90));
#225=IFCINDEXEDPOLYGONALFACE((94,95,96));
#226=IFCINDEXEDPOLYGONALFACE((93,92,91));
#227=IFCINDEXEDPOLYGONALFACE((91,92,95,94));
#228=IFCINDEXEDPOLYGONALFACE((92,93,96,95));
#229=IFCINDEXEDPOLYGONALFACE((93,91,94,96));
#230=IFCINDEXEDPOLYGONALFACE((100,101,102));
#231=IFCINDEXEDPOLYGONALFACE((99,98,97));
#232=IFCINDEXEDPOLYGONALFACE((97,98,101,100));
#233=IFCINDEXEDPOLYGONALFACE((98,99,102,101));
#234=IFCINDEXEDPOLYGONALFACE((99,97,100,102));
#235=IFCINDEXEDPOLYGONALFACE((106,107,108));
#236=IFCINDEXEDPOLYGONALFACE((105,104,103));
#237=IFCINDEXEDPOLYGONALFACE((103,104,107,106));
#238=IFCINDEXEDPOLYGONALFACE((104,105,108,107));
#239=IFCINDEXEDPOLYGONALFACE((105,103,106,108));
#240=IFCINDEXEDPOLYGONALFACE((112,113,114));
#241=IFCINDEXEDPOLYGONALFACE((111,110,109));
#242=IFCINDEXEDPOLYGONALFACE((109,110,113,112));
#243=IFCINDEXEDPOLYGONALFACE((110,111,114,113));
#244=IFCINDEXEDPOLYGONALFACE((111,109,112,114));
#245=IFCINDEXEDPOLYGONALFACE((118,119,120));
#246=IFCINDEXEDPOLYGONALFACE((117,116,115));
#247=IFCINDEXEDPOLYGONALFACE((115,116,119,118));
#248=IFCINDEXEDPOLYGONALFACE((116,117,120,119));
#249=IFCINDEXEDPOLYGONALFACE((117,115,118,120));
#250=IFCINDEXEDPOLYGONALFACE((124,125,126));
#251=IFCINDEXEDPOLYGONALFACE((123,122,121));
#252=IFCINDEXEDPOLYGONALFACE((121,122,125,124));
#253=IFCINDEXEDPOLYGONALFACE((122,123,126,125));
#254=IFCINDEXEDPOLYGONALFACE((123,121,124,126));
#255=IFCINDEXEDPOLYGONALFACE((130,131,132));
#256=IFCINDEXEDPOLYGONALFACE((129,128,127));
#257=IFCINDEXEDPOLYGONALFACE((127,128,131,130));
#258=IFCINDEXEDPOLYGONALFACE((128,129,132,131));
#259=IFCINDEXEDPOLYGONALFACE((129,127,130,132));
#260=IFCINDEXEDPOLYGONALFACE((136,137,138));
#261=IFCINDEXEDPOLYGONALFACE((135,134,133));
#262=IFCINDEXEDPOLYGONALFACE((133,134,137,136));
#263=IFCINDEXEDPOLYGONALFACE((134,135,138,137));
#264=IFCINDEXEDPOLYGONALFACE((135,133,136,138));
#265=IFCINDEXEDPOLYGONALFACE((142,143,144));
#266=IFCINDEXEDPOLYGONALFACE((141,140,139));
#267=IFCINDEXEDPOLYGONALFACE((139,140,143,142));
#268=IFCINDEXEDPOLYGONALFACE((140,141,144,143));
#269=IFCINDEXEDPOLYGONALFACE((141,139,142,144));
#270=IFCINDEXEDPOLYGONALFACE((148,149,150));
#271=IFCINDEXEDPOLYGONALFACE((147,146,145));
#272=IFCINDEXEDPOLYGONALFACE((145,146,149,148));
#273=IFCINDEXEDPOLYGONALFACE((146,147,150,149));
#274=IFCINDEXEDPOLYGONALFACE((147,145,148,150));
#275=IFCINDEXEDPOLYGONALFACE((154,155,156));
#276=IFCINDEXEDPOLYGONALFACE((153,152,151));
#277=IFCINDEXEDPOLYGONALFACE((151,152,155,154));
#278=IFCINDEXEDPOLYGONALFACE((152,153,156,155));
#279=IFCINDEXEDPOLYGONALFACE((153,151,154,156));
#280=IFCINDEXEDPOLYGONALFACE((160,161,162));
#281=IFCINDEXEDPOLYGONALFACE((159,158,157));
#282=IFCINDEXEDPOLYGONALFACE((157,158,161,160));
#283=IFCINDEXEDPOLYGONALFACE((158,159,162,161));
#284=IFCINDEXEDPOLYGONALFACE((159,157,160,162));
#285=IFCPOLYGONALFACESET(#149,.T.,(#150,#151,#152,#153,#154,#155,#156,#157,#158,#159,#160,#161,#162,#163,#164,#165,#166,#167,#168,#169,#170,#171,#172,#173,#174,#175,#176,#177,#178,#179,#180,#181,#182,#183,#184,#185,#186,#187,#188,#189,#190,#191,#192,#193,#194,#195,#196,#197,#198,#199,#200,#201,#202,#203,#204,#205,#206,#207,#208,#209,#210,#211,#212,#213,#214,#215,#216,#217,#218,#219,#220,#221,#222,#223,#224,#225,#226,#227,#228,#229,#230,#231,#232,#233,#234,#235,#236,#237,#238,#239,#240,#241,#242,#243,#244,#245,#246,#247,#248,#249,#250,#251,#252,#253,#254,#255,#256,#257,#258,#259,#260,#261,#262,#263,#264,#265,#266,#267,#268,#269,#270,#271,#272,#273,#274,#275,#276,#277,#278,#279,#280,#281,#282,#283,#284),$);
#286=IFCSHAPEREPRESENTATION(#18,'Body','Tessellation',(#285));
#287=IFCPROPERTYSET('3$AC2oI$vEG8QD_iD5G758',$,'Pset_EarthworksCutCommon',$,(#289));
#288=IFCRELDEFINESBYPROPERTIES('370pPzL9bC49FQMWTCPDw_',$,$,$,(#142),#287);
#289=IFCPROPERTYSINGLEVALUE('Status',$,IFCLABEL('NEW'),$);
#290=IFCRELVOIDSELEMENT('22Fiz_BqvEyhoiJ1IuWPN3',$,$,$,#8,#142);
#291=IFCQUANTITYLENGTH('Length',$,$,12.,$);
#292=IFCQUANTITYLENGTH('Width',$,$,10.5,$);
#293=IFCQUANTITYLENGTH('Depth',$,$,1.1711988304093381,$);
#294=IFCQUANTITYVOLUME('UndisturbedVolume',$,$,12.56890581717461,$);
#295=IFCQUANTITYVOLUME('LooseVolume',$,$,15.711132271468262,$);
#296=IFCELEMENTQUANTITY('18ED1$oDj0ZPITHtJ9c8D5',$,'Qto_EarthworksCutBaseQuantities',$,$,(#291,#292,#293,#294,#295));
#297=IFCRELDEFINESBYPROPERTIES('1EkSd1Al17Yw10K8PllkGS',$,$,$,(#142),#296);
#301=IFCEARTHWORKSFILL('2_8Cyzb3j7ce4Ujo9OGp5R',$,'Pad fill',$,$,#306,#307,$,.EMBANKMENT.);
#302=IFCCARTESIANPOINT((0.,0.,0.));
#303=IFCDIRECTION((0.,0.,1.));
#304=IFCDIRECTION((1.,0.,0.));
#305=IFCAXIS2PLACEMENT3D(#302,#303,#304);
#306=IFCLOCALPLACEMENT($,#305);
#307=IFCPRODUCTDEFINITIONSHAPE($,$,(#475));
#308=IFCCARTESIANPOINTLIST3D(((15.,5.,101.06722222222224),(15.,4.,101.06722222222224),(14.166666666666666,4.166666666666667,101.06722222222224),(15.,5.,100.44777777777779),(15.,4.,100.44777777777779),(14.166666666666666,4.166666666666667,100.44777777777779),(14.166666666666666,4.166666666666667,101.03055555555557),(10.,5.,101.03055555555557),(15.,5.,101.03055555555557),(14.166666666666666,4.166666666666667,100.29444444444444),(10.,5.,100.29444444444444),(15.,5.,100.29444444444444),(20.,5.,101.04583333333333),(16.25,3.75,101.04583333333333),(15.,5.,101.04583333333333),(20.,5.,100.81666666666666),(16.25,3.75,100.81666666666666),(15.,5.,100.81666666666666),(16.25,3.75,101.11916666666666),(20.,5.,101.11916666666666),(20.,3.,101.11916666666666),(16.25,3.75,101.05666666666666),(20.,5.,101.05666666666666),(20.,3.,101.05666666666666),(15.,5.,101.0825),(16.25,3.75,101.0825),(15.,4.,101.0825),(15.,5.,100.53666666666668),(16.25,3.75,100.53666666666668),(15.,4.,100.53666666666668),(15.,3.,100.65722222222223),(13.,3.,100.65722222222223),(14.166666666666666,4.166666666666667,100.65722222222223),(15.,3.,100.3411111111111),(13.,3.,100.3411111111111),(14.166666666666666,4.166666666666667,100.3411111111111),(14.166666666666666,4.166666666666667,100.92388888888888),(15.,4.,100.92388888888888),(15.,3.,100.92388888888888),(14.166666666666666,4.166666666666667,100.42111111111113),(15.,4.,100.42111111111113),(15.,3.,100.42111111111113),(13.,3.,100.41000000000001),(10.,3.,100.41000000000001),(10.,5.,100.41000000000001),(13.,3.,100.04666666666667),(10.,3.,100.04666666666667),(10.,5.,100.04666666666667),(10.,5.,100.80055555555555),(14.166666666666666,4.166666666666667,100.80055555555555),(13.,3.,100.80055555555555),(10.,5.,100.20111111111112),(14.166666666666666,4.166666666666667,100.20111111111112),(13.,3.,100.20111111111112),(17.,3.,101.0625),(16.25,3.75,101.0625),(20.,3.,101.0625),(17.,3.,100.87),(16.25,3.75,100.87),(20.,3.,100.87),(16.25,3.75,100.93916666666667),(15.,3.,100.93916666666667),(15.,4.,100.93916666666667),(16.25,3.75,100.50999999999999),(15.,3.,100.50999999999999),(15.,4.,100.50999999999999),(15.,3.,100.84583333333335),(16.25,3.75,100.84583333333335),(17.,3.,100.84583333333335),(15.,3.,100.60333333333334),(16.25,3.75,100.60333333333334),(17.,3.,100.60333333333334),(10.,15.,100.89824561403509),(14.736842105263158,15.263157894736842,100.89824561403509),(15.,15.,100.89824561403509),(10.,15.,100.79298245614035),(14.736842105263158,15.263157894736842,100.79298245614035),(15.,15.,100.79298245614035),(14.736842105263158,15.263157894736842,100.70491228070176),(10.,15.,100.70491228070176),(10.,15.5,100.70491228070176),(14.736842105263158,15.263157894736842,100.59964912280702),(10.,15.,100.59964912280702),(10.,15.5,100.59964912280702),(10.,5.,100.656338028169),(7.9577464788732479,7.9577464788732479,100.656338028169),(10.,10.,100.656338028169),(10.,5.,99.997183098591549),(7.9577464788732479,7.9577464788732479,99.997183098591549),(10.,10.,99.997183098591549),(7.9577464788732479,7.9577464788732479,100.168338028169),(10.,5.,100.168338028169),(7.1000000000000085,5.,100.168338028169),(7.9577464788732479,7.9577464788732479,99.775849765258215),(10.,5.,99.775849765258215),(7.1000000000000085,5.,99.775849765258215),(10.,10.,100.412338028169),(7.9577464788732479,7.9577464788732479,100.412338028169),(8.5500000000000043,10.,100.412338028169),(10.,10.,99.996183098591544),(7.9577464788732479,7.9577464788732479,99.996183098591544),(8.5500000000000043,10.,99.996183098591544),(8.8759689922480653,11.124031007751935,100.81085271317829),(10.,15.,100.81085271317829),(10.,10.,100.81085271317829),(8.8759689922480653,11.124031007751935,100.22919896640828),(10.,15.,100.22919896640828),(10.,10.,100.22919896640828),(10.,10.,100.56685271317831),(8.5500000000000043,10.,100.56685271317831),(8.8759689922480653,11.124031007751935,100.56685271317831),(10.,10.,100.09486563307495),(8.5500000000000043,10.,100.09486563307495),(8.8759689922480653,11.124031007751935,100.09486563307495),(7.1000000000000085,7.1000000000000085,99.712398028169005),(7.9577464788732479,7.9577464788732479,99.712398028169005),(7.1000000000000085,5.,99.712398028169005),(7.1000000000000085,7.1000000000000085,99.64918309859155),(7.9577464788732479,7.9577464788732479,99.64918309859155),(7.1000000000000085,5.,99.64918309859155),(7.9577464788732479,7.9577464788732479,100.00067136150234),(7.1000000000000085,10.,100.00067136150234),(8.5500000000000043,10.,100.00067136150234),(7.9577464788732479,7.9577464788732479,99.860849765258237),(7.1000000000000085,10.,99.860849765258237),(8.5500000000000043,10.,99.860849765258237),(7.1000000000000085,10.,99.788731361502343),(7.9577464788732479,7.9577464788732479,99.788731361502343),(7.1000000000000085,7.1000000000000085,99.788731361502343),(7.1000000000000085,10.,99.735183098591563),(7.9577464788732479,7.9577464788732479,99.735183098591563),(7.1000000000000085,7.1000000000000085,99.735183098591563),(7.1000000000000085,12.899999999999991,100.29727333333334),(7.1000000000000085,15.,100.29727333333334),(10.,15.,100.29727333333334),(7.1000000000000085,12.899999999999991,100.10133333333333),(7.1000000000000085,15.,100.10133333333333),(10.,15.,100.10133333333333),(10.,15.,100.44345937984497),(8.8759689922480653,11.124031007751935,100.44345937984497),(7.1000000000000085,12.899999999999991,100.44345937984497),(10.,15.,100.13253229974161),(8.8759689922480653,11.124031007751935,100.13253229974161),(7.1000000000000085,12.899999999999991,100.13253229974161),(7.1000000000000085,10.,100.03179271317829),(7.1000000000000085,12.899999999999991,100.03179271317829),(8.8759689922480653,11.124031007751935,100.03179271317829),(7.1000000000000085,10.,99.930532299741614),(7.1000000000000085,12.899999999999991,99.930532299741614),(8.8759689922480653,11.124031007751935,99.930532299741614),(8.8759689922480653,11.124031007751935,100.15518604651163),(8.5500000000000043,10.,100.15518604651163),(7.1000000000000085,10.,100.15518604651163),(8.8759689922480653,11.124031007751935,99.95953229974161),(8.5500000000000043,10.,99.95953229974161),(7.1000000000000085,10.,99.95953229974161),(12.5,7.5,101.),(15.,5.,101.),(10.,5.,101.),(12.5,7.5,100.28333333333335),(15.,5.,100.28333333333335),(10.,5.,100.28333333333335),(15.,5.,101.),(12.5,7.5,101.),(15.,10.,101.),(15.,5.,100.55),(12.5,7.5,100.55),(15.,10.,100.55),(15.,10.,101.),(20.,10.,101.),(15.,5.,101.),(15.,10.,100.93333333333334),(20.,10.,100.93333333333334),(15.,5.,100.93333333333334),(10.,10.,101.),(12.5,7.5,101.),(10.,5.,101.),(10.,10.,100.18333333333334),(12.5,7.5,100.18333333333334),(10.,5.,100.18333333333334),(10.,10.,101.),(15.,10.,101.),(12.5,7.5,101.),(10.,10.,100.45),(15.,10.,100.45),(12.5,7.5,100.45),(15.,10.,101.),(10.,10.,101.),(15.,15.,101.),(15.,10.,100.66666666666667),(10.,10.,100.66666666666667),(15.,15.,100.66666666666667),(10.,10.,101.),(10.,15.,101.),(15.,15.,101.),(10.,10.,100.53333333333335),(10.,15.,100.53333333333335),(15.,15.,100.53333333333335)),$);
#309=IFCINDEXEDPOLYGONALFACE((6,5,4));
#310=IFCINDEXEDPOLYGONALFACE((1,2,3));
#311=IFCINDEXEDPOLYGONALFACE((4,5,2,1));
#312=IFCINDEXEDPOLYGONALFACE((5,6,3,2));
#313=IFCINDEXEDPOLYGONALFACE((6,4,1,3));
#314=IFCINDEXEDPOLYGONALFACE((12,11,10));
#315=IFCINDEXEDPOLYGONALFACE((7,8,9));
#316=IFCINDEXEDPOLYGONALFACE((10,11,8,7));
#317=IFCINDEXEDPOLYGONALFACE((11,12,9,8));
#318=IFCINDEXEDPOLYGONALFACE((12,10,7,9));
#319=IFCINDEXEDPOLYGONALFACE((18,17,16));
#320=IFCINDEXEDPOLYGONALFACE((13,14,15));
#321=IFCINDEXEDPOLYGONALFACE((16,17,14,13));
#322=IFCINDEXEDPOLYGONALFACE((17,18,15,14));
#323=IFCINDEXEDPOLYGONALFACE((18,16,13,15));
#324=IFCINDEXEDPOLYGONALFACE((24,23,22));
#325=IFCINDEXEDPOLYGONALFACE((19,20,21));
#326=IFCINDEXEDPOLYGONALFACE((22,23,20,19));
#327=IFCINDEXEDPOLYGONALFACE((23,24,21,20));
#328=IFCINDEXEDPOLYGONALFACE((24,22,19,21));
#329=IFCINDEXEDPOLYGONALFACE((30,29,28));
#330=IFCINDEXEDPOLYGONALFACE((25,26,27));
#331=IFCINDEXEDPOLYGONALFACE((28,29,26,25));
#332=IFCINDEXEDPOLYGONALFACE((29,30,27,26));
#333=IFCINDEXEDPOLYGONALFACE((30,28,25,27));
#334=IFCINDEXEDPOLYGONALFACE((36,35,34));
#335=IFCINDEXEDPOLYGONALFACE((31,32,33));
#336=IFCINDEXEDPOLYGONALFACE((34,35,32,31));
#337=IFCINDEXEDPOLYGONALFACE((35,36,33,32));
#338=IFCINDEXEDPOLYGONALFACE((36,34,31,33));
#339=IFCINDEXEDPOLYGONALFACE((42,41,40));
#340=IFCINDEXEDPOLYGONALFACE((37,38,39));
#341=IFCINDEXEDPOLYGONALFACE((40,41,38,37));
#342=IFCINDEXEDPOLYGONALFACE((41,42,39,38));
#343=IFCINDEXEDPOLYGONALFACE((42,40,37,39));
#344=IFCINDEXEDPOLYGONALFACE((48,47,46));
#345=IFCINDEXEDPOLYGONALFACE((43,44,45));
#346=IFCINDEXEDPOLYGONALFACE((46,47,44,43));
#347=IFCINDEXEDPOLYGONALFACE((47,48,45,44));
#348=IFCINDEXEDPOLYGONALFACE((48,46,43,45));
#349=IFCINDEXEDPOLYGONALFACE((54,53,52));
#350=IFCINDEXEDPOLYGONALFACE((49,50,51));
#351=IFCINDEXEDPOLYGONALFACE((52,53,50,49));
#352=IFCINDEXEDPOLYGONALFACE((53,54,51,50));
#353=IFCINDEXEDPOLYGONALFACE((54,52,49,51));
#354=IFCINDEXEDPOLYGONALFACE((60,59,58));
#355=IFCINDEXEDPOLYGONALFACE((55,56,57));
#356=IFCINDEXEDPOLYGONALFACE((58,59,56,55));
#357=IFCINDEXEDPOLYGONALFACE((59,60,57,56));
#358=IFCINDEXEDPOLYGONALFACE((60,58,55,57));
#359=IFCINDEXEDPOLYGONALFACE((66,65,64));
#360=IFCINDEXEDPOLYGONALFACE((61,62,63));
#361=IFCINDEXEDPOLYGONALFACE((64,65,62,61));
#362=IFCINDEXEDPOLYGONALFACE((65,66,63,62));
#363=IFCINDEXEDPOLYGONALFACE((66,64,61,63));
#364=IFCINDEXEDPOLYGONALFACE((72,71,70));
#365=IFCINDEXEDPOLYGONALFACE((67,68,69));
#366=IFCINDEXEDPOLYGONALFACE((70,71,68,67));
#367=IFCINDEXEDPOLYGONALFACE((71,72,69,68));
#368=IFCINDEXEDPOLYGONALFACE((72,70,67,69));
#369=IFCINDEXEDPOLYGONALFACE((78,77,76));
#370=IFCINDEXEDPOLYGONALFACE((73,74,75));
#371=IFCINDEXEDPOLYGONALFACE((76,77,74,73));
#372=IFCINDEXEDPOLYGONALFACE((77,78,75,74));
#373=IFCINDEXEDPOLYGONALFACE((78,76,73,75));
#374=IFCINDEXEDPOLYGONALFACE((84,83,82));
#375=IFCINDEXEDPOLYGONALFACE((79,80,81));
#376=IFCINDEXEDPOLYGONALFACE((82,83,80,79));
#377=IFCINDEXEDPOLYGONALFACE((83,84,81,80));
#378=IFCINDEXEDPOLYGONALFACE((84,82,79,81));
#379=IFCINDEXEDPOLYGONALFACE((90,89,88));
#380=IFCINDEXEDPOLYGONALFACE((85,86,87));
#381=IFCINDEXEDPOLYGONALFACE((88,89,86,85));
#382=IFCINDEXEDPOLYGONALFACE((89,90,87,86));
#383=IFCINDEXEDPOLYGONALFACE((90,88,85,87));
#384=IFCINDEXEDPOLYGONALFACE((96,95,94));
#385=IFCINDEXEDPOLYGONALFACE((91,92,93));
#386=IFCINDEXEDPOLYGONALFACE((94,95,92,91));
#387=IFCINDEXEDPOLYGONALFACE((95,96,93,92));
#388=IFCINDEXEDPOLYGONALFACE((96,94,91,93));
#389=IFCINDEXEDPOLYGONALFACE((102,101,100));
#390=IFCINDEXEDPOLYGONALFACE((97,98,99));
#391=IFCINDEXEDPOLYGONALFACE((100,101,98,97));
#392=IFCINDEXEDPOLYGONALFACE((101,102,99,98));
#393=IFCINDEXEDPOLYGONALFACE((102,100,97,99));
#394=IFCINDEXEDPOLYGONALFACE((108,107,106));
#395=IFCINDEXEDPOLYGONALFACE((103,104,105));
#396=IFCINDEXEDPOLYGONALFACE((106,107,104,103));
#397=IFCINDEXEDPOLYGONALFACE((107,108,105,104));
#398=IFCINDEXEDPOLYGONALFACE((108,106,103,105));
#399=IFCINDEXEDPOLYGONALFACE((114,113,112));
#400=IFCINDEXEDPOLYGONALFACE((109,110,111));
#401=IFCINDEXEDPOLYGONALFACE((112,113,110,109));
#402=IFCINDEXEDPOLYGONALFACE((113,114,111,110));
#403=IFCINDEXEDPOLYGONALFACE((114,112,109,111));
#404=IFCINDEXEDPOLYGONALFACE((120,119,118));
#405=IFCINDEXEDPOLYGONALFACE((115,116,117));
#406=IFCINDEXEDPOLYGONALFACE((118,119,116,115));
#407=IFCINDEXEDPOLYGONALFACE((119,120,117,116));
#408=IFCINDEXEDPOLYGONALFACE((120,118,115,117));
#409=IFCINDEXEDPOLYGONALFACE((126,125,124));
#410=IFCINDEXEDPOLYGONALFACE((121,122,123));
#411=IFCINDEXEDPOLYGONALFACE((124,125,122,121));
#412=IFCINDEXEDPOLYGONALFACE((125,126,123,122));
#413=IFCINDEXEDPOLYGONALFACE((126,124,121,123));
#414=IFCINDEXEDPOLYGONALFACE((132,131,130));
#415=IFCINDEXEDPOLYGONALFACE((127,128,129));
#416=IFCINDEXEDPOLYGONALFACE((130,131,128,127));
#417=IFCINDEXEDPOLYGONALFACE((131,132,129,128));
#418=IFCINDEXEDPOLYGONALFACE((132,130,127,129));
#419=IFCINDEXEDPOLYGONALFACE((138,137,136));
#420=IFCINDEXEDPOLYGONALFACE((133,134,135));
#421=IFCINDEXEDPOLYGONALFACE((136,137,134,133));
#422=IFCINDEXEDPOLYGONALFACE((137,138,135,134));
#423=IFCINDEXEDPOLYGONALFACE((138,136,133,135));
#424=IFCINDEXEDPOLYGONALFACE((144,143,142));
#425=IFCINDEXEDPOLYGONALFACE((139,140,141));
#426=IFCINDEXEDPOLYGONALFACE((142,143,140,139));
#427=IFCINDEXEDPOLYGONALFACE((143,144,141,140));
#428=IFCINDEXEDPOLYGONALFACE((144,142,139,141));
#429=IFCINDEXEDPOLYGONALFACE((150,149,148));
#430=IFCINDEXEDPOLYGONALFACE((145,146,147));
#431=IFCINDEXEDPOLYGONALFACE((148,149,146,145));
#432=IFCINDEXEDPOLYGONALFACE((149,150,147,146));
#433=IFCINDEXEDPOLYGONALFACE((150,148,145,147));
#434=IFCINDEXEDPOLYGONALFACE((156,155,154));
#435=IFCINDEXEDPOLYGONALFACE((151,152,153));
#436=IFCINDEXEDPOLYGONALFACE((154,155,152,151));
#437=IFCINDEXEDPOLYGONALFACE((155,156,153,152));
#438=IFCINDEXEDPOLYGONALFACE((156,154,151,153));
#439=IFCINDEXEDPOLYGONALFACE((162,161,160));
#440=IFCINDEXEDPOLYGONALFACE((157,158,159));
#441=IFCINDEXEDPOLYGONALFACE((160,161,158,157));
#442=IFCINDEXEDPOLYGONALFACE((161,162,159,158));
#443=IFCINDEXEDPOLYGONALFACE((162,160,157,159));
#444=IFCINDEXEDPOLYGONALFACE((168,167,166));
#445=IFCINDEXEDPOLYGONALFACE((163,164,165));
#446=IFCINDEXEDPOLYGONALFACE((166,167,164,163));
#447=IFCINDEXEDPOLYGONALFACE((167,168,165,164));
#448=IFCINDEXEDPOLYGONALFACE((168,166,163,165));
#449=IFCINDEXEDPOLYGONALFACE((174,173,172));
#450=IFCINDEXEDPOLYGONALFACE((169,170,171));
#451=IFCINDEXEDPOLYGONALFACE((172,173,170,169));
#452=IFCINDEXEDPOLYGONALFACE((173,174,171,170));
#453=IFCINDEXEDPOLYGONALFACE((174,172,169,171));
#454=IFCINDEXEDPOLYGONALFACE((180,179,178));
#455=IFCINDEXEDPOLYGONALFACE((175,176,177));
#456=IFCINDEXEDPOLYGONALFACE((178,179,176,175));
#457=IFCINDEXEDPOLYGONALFACE((179,180,177,176));
#458=IFCINDEXEDPOLYGONALFACE((180,178,175,177));
#459=IFCINDEXEDPOLYGONALFACE((186,185,184));
#460=IFCINDEXEDPOLYGONALFACE((181,182,183));
#461=IFCINDEXEDPOLYGONALFACE((184,185,182,181));
#462=IFCINDEXEDPOLYGONALFACE((185,186,183,182));
#463=IFCINDEXEDPOLYGONALFACE((186,184,181,183));
#464=IFCINDEXEDPOLYGONALFACE((192,191,190));
#465=IFCINDEXEDPOLYGONALFACE((187,188,189));
#466=IFCINDEXEDPOLYGONALFACE((190,191,188,187));
#467=IFCINDEXEDPOLYGONALFACE((191,192,189,188));
#468=IFCINDEXEDPOLYGONALFACE((192,190,187,189));
#469=IFCINDEXEDPOLYGONALFACE((198,197,196));
#470=IFCINDEXEDPOLYGONALFACE((193,194,195));
#471=IFCINDEXEDPOLYGONALFACE((196,197,194,193));
#472=IFCINDEXEDPOLYGONALFACE((197,198,195,194));
#473=IFCINDEXEDPOLYGONALFACE((198,196,193,195));
#474=IFCPOLYGONALFACESET(#308,.T.,(#309,#310,#311,#312,#313,#314,#315,#316,#317,#318,#319,#320,#321,#322,#323,#324,#325,#326,#327,#328,#329,#330,#331,#332,#333,#334,#335,#336,#337,#338,#339,#340,#341,#342,#343,#344,#345,#346,#347,#348,#349,#350,#351,#352,#353,#354,#355,#356,#357,#358,#359,#360,#361,#362,#363,#364,#365,#366,#367,#368,#369,#370,#371,#372,#373,#374,#375,#376,#377,#378,#379,#380,#381,#382,#383,#384,#385,#386,#387,#388,#389,#390,#391,#392,#393,#394,#395,#396,#397,#398,#399,#400,#401,#402,#403,#404,#405,#406,#407,#408,#409,#410,#411,#412,#413,#414,#415,#416,#417,#418,#419,#420,#421,#422,#423,#424,#425,#426,#427,#428,#429,#430,#431,#432,#433,#434,#435,#436,#437,#438,#439,#440,#441,#442,#443,#444,#445,#446,#447,#448,#449,#450,#451,#452,#453,#454,#455,#456,#457,#458,#459,#460,#461,#462,#463,#464,#465,#466,#467,#468,#469,#470,#471,#472,#473),$);
#475=IFCSHAPEREPRESENTATION(#18,'Body','Tessellation',(#474));
#476=IFCPROPERTYSET('2fEcQXvpDANgIXkmBpV8ZK',$,'Pset_EarthworksFillCommon',$,(#478));
#477=IFCRELDEFINESBYPROPERTIES('2YT3OXbjj6uPOdFLCRxP$u',$,$,$,(#301),#476);
#478=IFCPROPERTYSINGLEVALUE('Status',$,IFCLABEL('NEW'),$);
#479=IFCRELFILLSELEMENT('0gROPwn0r5$9xpZE3rmDJ8',$,$,$,#142,#301);
#480=IFCQUANTITYLENGTH('Length',$,$,12.899999999999991,$);
#481=IFCQUANTITYLENGTH('Width',$,$,12.5,$);
#482=IFCQUANTITYLENGTH('Depth',$,$,1.4699835680751079,$);
#483=IFCQUANTITYVOLUME('CompactedVolume',$,$,44.439109150507264,$);
#484=IFCQUANTITYVOLUME('LooseVolume',$,$,48.303379511420935,$);
#485=IFCELEMENTQUANTITY('1YZ$BrkxXAI98y8lj6qfnC',$,'Qto_EarthworksFillBaseQuantities',$,$,(#480,#481,#482,#483,#484));
#486=IFCRELDEFINESBYPROPERTIES('3gzNvwFHX8Y98lFL47mAxI',$,$,$,(#301),#485);
#487=IFCPROPERTYSET('2OCLzSiCn2g8$z3vlb8Mt8',$,'Pset_SaikeiGradingShrinkSwell',$,(#489,#490));
#488=IFCRELDEFINESBYPROPERTIES('0ZhguRBKbCG90mJvyeCGIB',$,$,$,(#142),#487);
#489=IFCPROPERTYSINGLEVALUE('ShrinkFactor',$,IFCREAL(0.92000000000000004),$);
#490=IFCPROPERTYSINGLEVALUE('SwellFactor',$,IFCREAL(1.25),$);
#491=IFCPROPERTYSET('3c53VMZt9CnPpO3BX1_W5f',$,'Pset_SaikeiGradingShrinkSwell',$,(#493,#494));
#492=IFCRELDEFINESBYPROPERTIES('0lJ3D1yX5DkQ34uAtQYGFO',$,$,$,(#301),#491);
#493=IFCPROPERTYSINGLEVALUE('ShrinkFactor',$,IFCREAL(0.92000000000000004),$);
#494=IFCPROPERTYSINGLEVALUE('SwellFactor',$,IFCREAL(1.25),$);
ENDSEC;
END-ISO-10303-21;
